<?xml version="1.0" encoding="UTF-8" standalone="no"?>
<svg width="20px" height="26px" viewBox="0 0 20 26" version="1.1" xmlns="http://www.w3.org/2000/svg" xmlns:xlink="http://www.w3.org/1999/xlink">
    <!-- Generator: Sketch 39.1 (31720) - http://www.bohemiancoding.com/sketch -->
    <title>Group 12</title>
    <desc>Created with Sketch.</desc>
    <defs></defs>
    <g id="Page-1" stroke="none" stroke-width="1" fill="none" fill-rule="evenodd">
        <g id="Desktop" fill="#343434">
            <g id="Group-12">
                <path d="M2,3.00793008 L2,3.00793008 L2,22.9920699 C2,23.5527502 2.44557413,24 2.99420208,24 L17.0057979,24 C17.5513058,24 18,23.5495356 18,22.9920699 L18,3.00793008 C18,2.44724977 17.5544259,2 17.0057979,2 L2.99420208,2 C2.4486942,2 2,2.45046437 2,3.00793008 L2,3.00793008 Z M0,3.00793008 C0,1.34669617 1.34331197,0 2.99420208,0 L17.0057979,0 C18.6594501,0 20,1.34312337 20,3.00793008 L20,22.9920699 C20,24.6533038 18.656688,26 17.0057979,26 L2.99420208,26 C1.34054993,26 0,24.6568766 0,22.9920699 L0,3.00793008 L0,3.00793008 Z" id="Rectangle-87"></path>
                <rect id="Rectangle-88" x="8" y="20" width="4" height="6" rx="1"></rect>
                <rect id="Rectangle-89" x="5" y="4" width="2" height="2"></rect>
                <rect id="Rectangle-89" x="9" y="4" width="2" height="2"></rect>
                <rect id="Rectangle-89" x="13" y="4" width="2" height="2"></rect>
                <rect id="Rectangle-89" x="5" y="8" width="2" height="2"></rect>
                <rect id="Rectangle-89" x="9" y="8" width="2" height="2"></rect>
                <rect id="Rectangle-89" x="13" y="8" width="2" height="2"></rect>
                <rect id="Rectangle-89" x="5" y="12" width="2" height="2"></rect>
                <rect id="Rectangle-89" x="9" y="12" width="2" height="2"></rect>
                <rect id="Rectangle-89" x="13" y="12" width="2" height="2"></rect>
                <rect id="Rectangle-89" x="5" y="16" width="2" height="2"></rect>
                <rect id="Rectangle-89" x="9" y="16" width="2" height="2"></rect>
                <rect id="Rectangle-89" x="13" y="16" width="2" height="2"></rect>
            </g>
        </g>
    </g>
</svg>