<svg xmlns="http://www.w3.org/2000/svg" width="37" height="20" viewBox="0 0 37 20">
    <g fill="none" fill-rule="evenodd">
        <path fill="#333" d="M4.046 5.032c1.503 0 2.62.264 3.353.791.733.527 1.099 1.351 1.099 2.471s-.366 1.948-1.099 2.485c-.733.537-1.85.805-3.353.805H2.814V15H1.106V5.032h2.94zm-.07 5.138c.952 0 1.652-.14 2.1-.42.448-.28.672-.765.672-1.456 0-.7-.222-1.185-.665-1.456-.443-.27-1.146-.406-2.107-.406H2.814v3.738h1.162zm6.034-5.166l1.638-.336V15H10.01V5.004zm6.006 10.206c-.765 0-1.365-.24-1.799-.721-.434-.48-.651-1.16-.651-2.037v-4.9h1.652v4.578c0 1.12.448 1.68 1.344 1.68.532 0 .95-.194 1.253-.581.303-.387.455-.982.455-1.785V7.552h1.652V15h-1.218l-.364-1.288h-.042a2.34 2.34 0 0 1-.84 1.092c-.383.27-.863.406-1.442.406zm8.33 0c-.784 0-1.447-.191-1.988-.574a2.655 2.655 0 0 1-1.064-1.568l1.344-.546c.168.476.39.824.665 1.043.275.22.632.329 1.071.329.373 0 .665-.082.875-.245a.784.784 0 0 0 .315-.651.837.837 0 0 0-.315-.679c-.184-.151-.494-.3-.932-.448l-.195-.063c-.84-.252-1.447-.555-1.82-.91s-.56-.817-.56-1.386c0-.42.107-.796.322-1.127.215-.331.516-.59.903-.777.387-.187.824-.28 1.309-.28s.924.075 1.316.224c.392.15.7.355.924.616l-1.05 1.036a1.389 1.389 0 0 0-.504-.427 1.591 1.591 0 0 0-.686-.133c-.261 0-.474.068-.637.203a.65.65 0 0 0-.245.525c0 .215.084.392.252.532.168.14.443.27.826.392.69.215 1.232.439 1.624.672.392.233.674.506.847.819.173.313.259.698.259 1.155 0 .681-.264 1.23-.791 1.645-.527.415-1.216.623-2.065.623z"/>
        <path fill="#00FFD0" d="M22.008 18.193a.551.551 0 0 1-.184.256c.022.045.048.094.069.144.003.007-.019.018-.027.027a.181.181 0 0 0-.042.07.52.52 0 0 1-.377.06.111.111 0 0 0-.048.002c-.18.062-.378.052-.566.06a292.946 292.946 0 0 1-4.09.169c-.246.007-.49-.007-.735 0-.236.006-.473.033-.71.04-.271.008-.547.034-.813-.001-.073-.01-.163.008-.244.015-.098.01-.196.026-.293.03-.368.014-.736.026-1.103.034-.56.011-1.121.047-1.681.071-.375.017-.749.03-1.123.05-.82.042-1.641.084-2.461.13-.826.047-1.65.099-2.476.148-.23.014-.454.028-.681.075-.15.03-.324.02-.487.028l-.79.035c-.24.01-.483.008-.72.034-.376.04-.747.035-1.118.042-.263.005-.54.013-.773-.059a.454.454 0 0 1-.185-.095c-.13-.14-.235-.289-.276-.447-.023-.09-.005-.185 0-.278.006-.095.021-.19.029-.284.006-.074.01-.149.008-.223-.003-.054.004-.113-.091-.134.024-.044.058-.083.064-.122.025-.17.046-.34.059-.51.005-.062-.032-.123-.029-.185.01-.152-.05-.3.021-.457.026-.055.026-.111.137-.166.164.003.375.034.564.006.245-.038.477-.025.714-.034.782-.03 1.564-.05 2.346-.08.473-.019.947-.053 1.42-.078.556-.029 1.112-.052 1.668-.082.593-.032 1.187-.07 1.78-.102.458-.025.914-.046 1.37-.07.595-.03 1.19-.064 1.783-.089.456-.02.912-.026 1.368-.04.5-.017 1-.037 1.5-.053.582-.02 1.164-.034 1.747-.054.589-.02 1.178-.045 1.767-.068.507-.02 1.013-.037 1.52-.06.412-.018.825-.041 1.238-.063.17-.01.346-.009.507-.039a.915.915 0 0 1 .296-.002c.064.007.098.028.063.062-.076.075.002.125.07.189l-.217.106.202-.015-.05.262c.005.003.021.014.043.021.094.03.094.07.05.123-.025.03-.026.063-.043.106l-.12.035.004.024h.177-.004c.046.048.16.087.049.157l.002-.002c-.027.057-.063.115.017.156-.04.04-.13.1-.109.116.1.075.003.161.03.239a.222.222 0 0 1-.01.138c-.015.042.001.066.12.062-.145.06-.168.114-.125.184.023.04.003.086.036.13.025.035-.038.089-.046.134-.007.042.008.083.013.124l-.004-.002zm-4.512.123l.001-.046-1.16.081c0 .003-.002.006-.003.008l1.162-.043zm-5.832-.003v-.04l-1.16.08-.003.015 1.163-.055zm4.67.008l-.008-.04-1.157.064v.04l1.165-.064zm-4.676.006l.007-.035a5.003 5.003 0 0 0-1.164.083l1.157-.048zm2.35.021l-.006.027 1.16-.057c0-.01.002-.019.003-.028l-1.157.058zm-1.175.005l.005.042L14 18.314v-.007l-1.167.046zm-3.492.008a.47.47 0 0 0-.005.026l1.163-.082-.001-.025-1.157.08zm9.425-.02l-.002-.028-.197.013.003.028.196-.014zm-8.267-.043l-.003-.01-1.162.08.002.011 1.163-.081zm-.081.025v.023l.164-.002-.001-.032-.163.011zm.024 0l-.002.03a2110273327652458.2 2110273327652458.2 0 0 0 .002-.03zm10.57-.029a4.083 4.083 0 0 1-.037.004l.02.074.03-.006-.012-.072zm-7.097-1.136l.005.028.164-.011v-.02l-.169.003zm-5.79-.006v.035l.084-.01v-.02a13.043 13.043 0 0 0-.084-.005zm12.893 1.184c-.004-.006-.008-.016-.011-.016-.009 0-.017.006-.025.01.004.006.009.017.012.017.008-.001.016-.007.024-.011zm-10.55-.012l.002.023.061-.011c0-.004 0-.008-.002-.013l-.06.001zm.008.008c.02.005.03.01.038.008.004 0 .006-.01.01-.016l-.048.008zm10.534.004l-.001-.01-.019.007c.003.002.005.007.008.007.004 0 .008-.002.012-.004zm-8.203-.004c.023.006.032.011.042.01.004 0 .006-.013.01-.02a80.33 80.33 0 0 1-.052.01zm1.191.016l.026-.013c-.004-.006-.011-.018-.013-.017-.012.003-.023.01-.035.015l.022.015zm-3.486-.008l.003-.013h-.028l-.002.011.027.002zm1.178-.02c-.014 0-.027-.004-.04-.003-.003 0-.01.02-.007.02.012.006.025.01.038.013l.009-.03zm-1.182.027l.011-.022c-.01-.002-.02-.007-.028-.006-.005.001-.007.014-.01.02l.027.008zm7.01-.021c-.008-.003-.02-.008-.026-.006-.006.002-.007.014-.01.02.008.003.019.01.024.007.007-.004.009-.014.013-.021zm3.496-1.158l-.02-.013-.008.01.02.013.008-.01zM9.346 18.34l-.01-.019c-.001 0-.013.001-.013.003-.002.007-.001.013-.001.02.008 0 .016-.002.024-.004zm7.017-1.165c-.008-.012-.013-.025-.017-.025-.014 0-.028.006-.042.01.005.007.009.02.015.02.013.002.028-.002.044-.005zm4.65 1.156l-.02-.01c-.002.004-.007.01-.006.011l.021.011.005-.012zm-.02-.006l.01.014c.001-.003.004-.007.003-.009-.002-.002-.007-.003-.013-.005zm-3.498.002l-.004.007c.004.001.01.005.012.004.003-.003.004-.008.006-.012l-.014.001zm3.51-.006l-.013.002c0 .007.002.014.003.02.005 0 .013-.002.013-.003 0-.006-.002-.012-.004-.019zm-7.006.003c-.004.002-.01.005-.011.008-.001.002.004.006.007.01l.017-.014-.013-.004zM31.972-.988c.053.003.102.03.148.058.17.105.23.267.158.557-.187.74-.261 1.473-.344 2.209l-.088.819h.055l1.155-.008c.142-.054.306-.035.467-.017.099.01.167-.028.25-.032.25-.012.504-.012.757-.014.253-.003.508.004.758-.007.117-.005.203.026.301.051.083.07.131.147.134.226.006.13.068.258.057.39-.011.126.046.26.078.39.06.242.099.485.139.727.018.113-.036.222-.142.314-.043.038-.116.046-.193.044-.255-.006-.51-.016-.764-.02-.509-.006-1.017-.012-1.524-.01-.418 0-.833.012-1.25.019-.156.002-.312.005-.468.01-.04.504-.074 1.006-.101 1.507-.028.516-.015 1.02-.02 1.53-.002.127-.001.254-.012.383-.013.164-.082.282-.197.35a.766.766 0 0 1-.134.064c-.113.04-.226.07-.338.113-.2.078-.399.06-.6.188a.061.061 0 0 1-.034.011c-.326-.018-.67.123-.998.136-.098.003-.193-.017-.237-.021l-.142-.04c-.126-.035-.184-.15-.183-.347.006-1.24.05-2.488.155-3.754l-.409.02-2.208.112a9.688 9.688 0 0 1-.444.012c-.215 0-.384-.069-.451-.194a1.278 1.278 0 0 1-.135-.337 18.892 18.892 0 0 1-.158-.943c-.014-.095.013-.188-.008-.285-.014-.062.06-.125.098-.192.407-.013.817.019 1.224-.037l-.067-.069.147-.003.128-.003-.046-.025-.125-.069c.276-.033.531-.065.805.008l-.01.003c.048-.016.092-.044.145-.047.293-.015.586-.032.882-.033.163-.001.326.007.486-.012a.362.362 0 0 1 .144.014l.062.024.077-.03a.498.498 0 0 1 .056-.012c.014-.133.026-.268.038-.402.01-.098.022-.199.016-.29-.021-.361.03-.74.057-1.112.016-.227.035-.45.02-.67a1.335 1.335 0 0 1 .111-.672.694.694 0 0 1 .284-.334 1.08 1.08 0 0 1 .665-.12c.215.022.432.01.652-.004.166-.01.327-.035.495-.087.215-.066.421-.05.626-.037zm-4.988 3.885l-.003.026.047-.009-.044-.017zm-.434.023l-.018-.001.007.005.01-.004zm.634-.082l-.018-.005c.037.012.074.026.111.037.012.004.035.006.039.003.018-.015.004-.024-.037-.026l-.061-.005-.034-.004zm-.018-.005l-.01.003.028.002-.018-.005zm1.709-.051l-.004.002.09.009-.081-.009-.005-.002z"/>
    </g>
</svg>
