<?xml version="1.0" encoding="utf-8"?>
<!-- Generated by IcoMoon.io -->
<!DOCTYPE svg PUBLIC "-//W3C//DTD SVG 1.1//EN" "http://www.w3.org/Graphics/SVG/1.1/DTD/svg11.dtd">
<svg version="1.1" xmlns="http://www.w3.org/2000/svg" xmlns:xlink="http://www.w3.org/1999/xlink" width="26" height="26" viewBox="0 0 26 26">
<path d="M23 8h-2v-2c0-1.66-1.34-3-3-3h-15c-1.66 0-3 1.34-3 3v12c0 1.66 1.34 3 3 3h0.663c0.434 1.44 1.757 2.5 3.337 2.5s2.903-1.060 3.337-2.5h5.326c0.434 1.44 1.757 2.5 3.337 2.5s2.903-1.060 3.337-2.5h0.663c1.66 0 3-1.34 3-3v-7c0-1.66-1.34-3-3-3zM7 21.5c-0.827 0-1.5-0.673-1.5-1.5s0.673-1.5 1.5-1.5 1.5 0.673 1.5 1.5-0.673 1.5-1.5 1.5zM19 21.5c-0.827 0-1.5-0.673-1.5-1.5s0.673-1.5 1.5-1.5 1.5 0.673 1.5 1.5-0.673 1.5-1.5 1.5zM24 18c0 0.55-0.45 1-1 1h-0.663c-0.434-1.44-1.757-2.5-3.337-2.5s-2.903 1.060-3.337 2.5h-5.326c-0.434-1.44-1.757-2.5-3.337-2.5s-2.903 1.060-3.337 2.5h-0.663c-0.55 0-1-0.45-1-1v-12c0-0.55 0.45-1 1-1h15c0.55 0 1 0.45 1 1v4h4c0.55 0 1 0.45 1 1v7z" fill="rgb(68, 68, 68)"></path>
</svg>
